<?xml version="1.0" encoding="UTF-8"?>
<svg width="80px" height="80px" viewBox="0 0 80 80" version="1.1" xmlns="http://www.w3.org/2000/svg" xmlns:xlink="http://www.w3.org/1999/xlink">
    <!-- Generator: Sketch 59.1 (86144) - https://sketch.com -->
    <title>icons/tc/analytics-pressed</title>
    <desc>Created with Sketch.</desc>
    <defs>
        <linearGradient x1="50%" y1="50%" x2="100%" y2="100%" id="linearGradient-1">
            <stop stop-color="#EFF1F3" offset="0%"></stop>
            <stop stop-color="#AEB9C2" offset="100%"></stop>
        </linearGradient>
    </defs>
    <g id="20191023-lieferung-icons-aus-tc-bereich" stroke="none" stroke-width="1" fill="none" fill-rule="evenodd">
        <g id="Icons-and-Buttons" transform="translate(-912.000000, -449.000000)">
            <g id="icons/tc/analytics" transform="translate(912.000000, 449.000000)">
                <g id="backgrounds" fill="url(#linearGradient-1)" fill-opacity="0.01">
                    <rect id="normal" x="0" y="0" width="80" height="80"></rect>
                </g>
                <g id="icon-status-copy" transform="translate(11.000000, 14.000000)" fill="#556B7F">
                    <g id="normal">
                        <g id="icon-base">
                            <path d="M29.133,4 C39.131,4 47.266,12.135 47.266,22.133 C47.266,26.774 45.498,30.999 42.62,34.21 L42.62,34.21 L55.707,47.295 C56.098,47.685 56.098,48.318 55.707,48.709 C55.512,48.904 55.256,49.002 55,49.002 C54.744,49.002 54.488,48.904 54.293,48.709 L54.293,48.709 L41.206,35.624 C37.996,38.5 33.772,40.266 29.133,40.266 C19.134,40.266 11,32.132 11,22.133 C11,12.135 19.134,4 29.133,4 Z M13.5603532,35.9116183 L14.9881872,37.3988657 L14.9329355,37.501788 L11.8523678,42.5229428 C11.5441418,43.0253341 10.8786825,43.1469718 10.4152359,42.8114194 L10.3192218,42.7324896 L5.75369493,38.4892743 L1.80019302,43.7641454 C1.46896436,44.2060798 0.842191851,44.2958245 0.400257448,43.9645959 C-0.00768200026,43.6588463 -0.115530842,43.1012724 0.130811187,42.6697076 L0.199806978,42.5646603 L4.82001059,36.4002574 C5.15081585,35.958888 5.76906161,35.874063 6.20406378,36.1879724 L6.30098181,36.2675104 L10.7862549,40.4361376 L13.5603532,35.9116183 Z M44.181455,16.3161603 L34.2377068,27.1762578 C33.8930009,27.5527788 33.3266108,27.6050479 32.9212447,27.3165438 L32.8234793,27.2373087 L25.4100825,20.4246187 L17.5065231,33.3070777 C20.4438123,36.3621431 24.5701874,38.266 29.133,38.266 C38.028,38.266 45.266,31.029 45.266,22.133 C45.266,20.0832304 44.8817277,18.1215387 44.181455,16.3161603 Z M29.133,6 C20.237,6 13,13.237 13,22.133 C13,25.7101781 14.1701732,29.0191072 16.147846,31.697114 L24.3403167,18.3437677 C24.6474225,17.8432021 25.3096238,17.7202813 25.7732279,18.0522702 L25.8693302,18.1304017 L33.439074,25.08677 L43.2641322,14.3550076 C40.5136404,9.37791849 35.2100282,6 29.133,6 Z M56.9875583,1.66092555 L55.7879294,9.07176259 C55.6620103,9.84964136 54.7277205,10.1830355 54.1377944,9.66060058 L52.0319409,7.796 L47.3870656,13.0227709 L46.3345357,11.0126407 L50.5069409,6.445 L48.3374233,4.52382696 C47.7583645,4.01101599 47.9557944,3.06310805 48.6914371,2.82412261 L55.6914371,0.550059183 C56.4030024,0.318895672 57.1071124,0.922367134 56.9875583,1.66092555 Z" id="Combined-Shape"></path>
                        </g>
                    </g>
                </g>
            </g>
        </g>
    </g>
</svg>