<?xml version="1.0" encoding="utf-8"?>
<!-- Generator: Adobe Illustrator 16.0.4, SVG Export Plug-In . SVG Version: 6.00 Build 0)  -->
<!DOCTYPE svg PUBLIC "-//W3C//DTD SVG 1.1//EN" "http://www.w3.org/Graphics/SVG/1.1/DTD/svg11.dtd">
<svg version="1.1" id="pfade" xmlns="http://www.w3.org/2000/svg" xmlns:xlink="http://www.w3.org/1999/xlink" x="0px" y="0px"
	 width="80px" height="80px" viewBox="0 0 80 80" enable-background="new 0 0 80 80" xml:space="preserve">
<g>
	<polygon fill="#FFFFFF" points="57.071,38.65 62.595,43.053 62.595,40.97 69.503,40.97 69.503,38.648 	"/>
	<g>
		<polygon fill="#FFFFFF" points="69.503,37.766 63.979,33.363 63.979,35.446 47.408,35.445 47.408,37.767 		"/>
		<g>
			<path fill-rule="evenodd" clip-rule="evenodd" fill="#FFFFFF" d="M38.55,44.549c0.455,0,0.891-0.106,1.345-0.287l-0.671,2.249
				c-0.357,0.074-0.749,0.126-1.122,0.126c-2.214,0-3.988-1.369-3.988-4.165c0-2.627,1.851-3.94,3.988-3.94
				c0.706,0,1.126,0.101,1.813,0.247v2.065c-0.42-0.157-0.849-0.292-1.279-0.292c-1.088,0-1.908,0.685-1.908,1.965
				C36.728,43.864,37.491,44.549,38.55,44.549z"/>
			<path fill-rule="evenodd" clip-rule="evenodd" fill="#FFFFFF" d="M39.965,46.502h2.548l0.41-1.695h2.156l0.439,1.695h2.681
				l-2.376-7.836h-3.521L39.965,46.502z M44.01,40.35h0.019l0.725,2.571h-1.479L44.01,40.35z"/>
			<path fill-rule="evenodd" clip-rule="evenodd" fill="#FFFFFF" d="M18.618,45.405c-0.193,0.085-0.375,0.157-0.628,0.157
				c-0.459,0-0.641-0.266-0.641-0.967v-3.638h1.269v-0.822h-1.269v-2.174h-1.015v2.174h-0.979v0.822h0.979v3.965
				c0,1.088,0.495,1.462,1.426,1.462c0.278,0,0.617-0.073,0.858-0.157V45.405z"/>
			<polygon fill-rule="evenodd" clip-rule="evenodd" fill="#FFFFFF" points="10.497,46.381 14.583,46.381 14.583,45.462 
				11.561,45.462 11.561,42.465 14.293,42.465 14.293,41.546 11.561,41.546 11.561,38.863 14.426,38.863 14.426,37.944 
				10.497,37.944 			"/>
			<path fill-rule="evenodd" clip-rule="evenodd" fill="#FFFFFF" d="M19.474,46.381h1.015v-3.71c0-1.112,0.508-1.668,1.305-1.668
				c0.653,0,1.015,0.423,1.015,1.402v3.977h1.015v-4.279c0-1.354-0.725-1.97-1.801-1.97c-0.713,0-1.245,0.411-1.511,0.931H20.49
				v-3.101h-1.015V46.381z"/>
			<path fill-rule="evenodd" clip-rule="evenodd" fill="#FFFFFF" d="M29.539,43.601v-0.544c0-1.813-0.773-2.925-2.163-2.925
				c-1.535,0-2.381,1.233-2.381,3.167c0,1.934,0.846,3.167,2.478,3.167c0.616,0,1.245-0.133,1.728-0.363l-0.048-0.919
				c-0.35,0.254-0.906,0.508-1.414,0.508c-1.124,0-1.68-0.665-1.68-2.091H29.539z M26.058,42.827
				c0.024-1.438,0.604-1.922,1.257-1.922c0.81,0,1.209,0.641,1.209,1.922H26.058z"/>
			<path fill-rule="evenodd" clip-rule="evenodd" fill="#FFFFFF" d="M30.659,46.381h1.015v-3.263c0-1.341,0.556-2.018,1.342-2.018
				c0.133,0,0.266,0.012,0.387,0.036v-1.003c-0.906,0-1.426,0.302-1.753,1.052h-0.024l-0.036-0.967h-0.979
				c0.012,0.435,0.048,0.882,0.048,1.329V46.381z"/>
		</g>
		<g>
			<path fill-rule="evenodd" clip-rule="evenodd" fill="#FFFFFF" d="M54.766,44.945h0.217c0.124,0,0.265,0.025,0.265,0.178
				c0,0.175-0.124,0.194-0.268,0.194h-0.214V44.945z M54.523,46.063h0.242v-0.561h0.147l0.338,0.561h0.249l-0.351-0.57
				c0.214-0.019,0.341-0.127,0.341-0.351c0-0.274-0.169-0.383-0.481-0.383h-0.484V46.063z M54.966,46.344
				c-0.481,0-0.87-0.389-0.87-0.927c0-0.539,0.389-0.927,0.87-0.927s0.87,0.389,0.87,0.927
				C55.836,45.955,55.448,46.344,54.966,46.344z M54.966,46.567c0.634,0,1.15-0.516,1.15-1.151c0-0.634-0.516-1.15-1.15-1.15
				c-0.634,0-1.15,0.516-1.15,1.15C53.816,46.05,54.332,46.567,54.966,46.567z"/>
		</g>
	</g>
	<polygon fill-rule="evenodd" clip-rule="evenodd" fill="#FFFFFF" points="47.408,38.648 55.694,38.648 55.694,40.969 52.83,40.969 
		52.83,46.493 50.271,46.493 50.271,40.969 47.408,40.969 	"/>
</g>
</svg>
