<?xml version="1.0" encoding="utf-8"?>
<!-- Generator: Adobe Illustrator 16.0.4, SVG Export Plug-In . SVG Version: 6.00 Build 0)  -->
<!DOCTYPE svg PUBLIC "-//W3C//DTD SVG 1.1//EN" "http://www.w3.org/Graphics/SVG/1.1/DTD/svg11.dtd">
<svg version="1.1" id="Ebene_1" xmlns="http://www.w3.org/2000/svg" xmlns:xlink="http://www.w3.org/1999/xlink" x="0px" y="0px"
	 width="11px" height="80px" viewBox="0 0 11 80" enable-background="new 0 0 11 80" xml:space="preserve">
<g>
	<linearGradient id="SVGID_1_" gradientUnits="userSpaceOnUse" x1="-16.4688" y1="13.8193" x2="27.4687" y2="66.1819">
		<stop  offset="0.5" style="stop-color:#EFF1F3"/>
		<stop  offset="0.9998" style="stop-color:#AEB9C2"/>
	</linearGradient>
	<rect fill="url(#SVGID_1_)" width="11" height="80"/>
	<g opacity="0.4">
		<circle cx="3.295" cy="27.396" r="1.474"/>
		<circle cx="7.705" cy="27.396" r="1.473"/>
	</g>
	<g opacity="0.4">
		<circle cx="3.295" cy="33.749" r="1.474"/>
		<circle cx="7.705" cy="33.749" r="1.473"/>
	</g>
	<g opacity="0.4">
		<circle cx="3.295" cy="40.102" r="1.474"/>
		<circle cx="7.705" cy="40.102" r="1.473"/>
	</g>
	<g opacity="0.4">
		<circle cx="3.295" cy="50.93" r="1.474"/>
		<circle cx="7.705" cy="50.93" r="1.473"/>
	</g>
	<g opacity="0.4">
		<circle cx="3.295" cy="57.154" r="1.474"/>
		<circle cx="7.705" cy="57.154" r="1.473"/>
	</g>
	<g opacity="0.4">
		<circle cx="3.295" cy="63.38" r="1.474"/>
		<circle cx="7.705" cy="63.38" r="1.473"/>
	</g>
	<g opacity="0.4">
		<circle cx="3.295" cy="69.605" r="1.474"/>
		<circle cx="7.705" cy="69.605" r="1.473"/>
	</g>
	<g opacity="0.4">
		<circle cx="3.295" cy="75.831" r="1.474"/>
		<circle cx="7.705" cy="75.831" r="1.473"/>
	</g>
	<rect x="2.162" y="5.732" opacity="0.4" width="6.676" height="17.713"/>
	<g>
		<path d="M1.71,46.011V44.59h0.433c0.252,0,0.449,0.081,0.449,0.367c0,0.125-0.047,0.237-0.162,0.3v0.004
			c0.152,0.087,0.184,0.163,0.184,0.339c0,0.288-0.162,0.411-0.434,0.411H1.71z M2.043,45.148c0.146-0.009,0.215,0,0.215-0.168
			c0-0.141-0.097-0.135-0.215-0.135V45.148z M2.043,45.755c0.167-0.003,0.237,0.008,0.237-0.184c0-0.165-0.095-0.161-0.237-0.167
			V45.755z"/>
		<path d="M2.768,46.011V44.59h0.764v0.284H3.101v0.262h0.417v0.284H3.101v0.307h0.453v0.284H2.768z"/>
		<path d="M4.27,45.086v-0.091c0-0.121-0.043-0.184-0.105-0.184c-0.104-0.002-0.129,0.055-0.129,0.147l-0.002,0.703
			c0,0.08,0.031,0.127,0.119,0.127c0.113,0,0.123-0.117,0.123-0.204v-0.129h0.334v0.174c0,0.245-0.141,0.415-0.482,0.415
			c-0.307,0-0.426-0.162-0.426-0.453v-0.583c0-0.31,0.143-0.453,0.447-0.453c0.284,0,0.455,0.121,0.455,0.411v0.119H4.27z"/>
		<path d="M4.764,46.011V44.59h0.334v0.568h0.004l0.246-0.568h0.342l-0.304,0.627l0.322,0.794H5.355l-0.184-0.494L5.098,45.66v0.351
			H4.764z"/>
		<path d="M5.812,46.011V44.59h0.333v0.546h0.231V44.59h0.334v1.421H6.377V45.42H6.146v0.591H5.812z"/>
		<path d="M7.768,45.558c0,0.32-0.111,0.487-0.449,0.487s-0.455-0.167-0.455-0.487V44.98c0-0.273,0.164-0.425,0.455-0.425
			c0.293,0,0.449,0.151,0.449,0.425V45.558z M7.434,45.003c0-0.087-0.008-0.191-0.117-0.191c-0.105,0-0.119,0.104-0.119,0.191v0.583
			c0,0.082,0.014,0.203,0.121,0.203s0.115-0.121,0.115-0.203V45.003z"/>
		<path d="M7.934,46.011V44.59h0.785v0.284H8.268v0.252h0.416v0.284H8.268v0.601H7.934z"/>
		<path d="M8.881,46.011V44.59h0.785v0.284H9.215v0.252h0.416v0.284H9.215v0.601H8.881z"/>
	</g>
</g>
</svg>
